<?xml version="1.0" encoding="UTF-8"?><svg id="Cadastra_Symbol" xmlns="http://www.w3.org/2000/svg" viewBox="0 0 25.51 25.51"><defs><style>.cls-1{fill:param(fill);stroke-width:0px;}</style></defs><path class="cls-1" d="m3.61,16.14l-.1-.22.08-.3.48-.06.36.12-.02.16-.16.32-.3.1-.34-.12Zm.18-8.04l-.1-.22.08-.3.48-.06.36.1-.02.18-.16.32-.02.1-.62-.12Zm1.58,12.9l-1.38-.86.14-1.1.58-.58,1.22.1.8.74.08,1.3-.2.58-1.24-.18Zm-1.34-16.24l.82-.74.46-.48.74.14.7.74v1.26l-.94.54h-.88l-.9-1.46Zm1.06,8.54l-.54-1.06-.04-.58,1.2-.34,1.58.2.28.98-.32.72-1.16.4-1-.32Zm2.72-4.64l-.28-.16v-.38l.2-.22.22-.1.4.42-.28.46-.26-.02Zm1.3,13.24l-.18-.18.08-.58.58-.06.16.26.04.34-.34.26-.34-.04Zm1-4.26l-.68-.5.14-1.88,1.58-.26.48.58.12,1.1-.68,1.08-.96-.12Zm-.5-5l-.04-.58.22-.16.3-.04.2.34v.34l-.16.18-.52-.08Zm.08-8.24l.02-.34-.12-.2h.68l.16.14.04.28-.3.26h-.42l-.06-.14Zm2.12,4.22l-.12-1.14.74-1.14,1.02.12.74.54-.16,1.94-1.7.28-.52-.6Zm.96,12.28l.14-.84.84-.72.6-.12.48.58.12,1.1-.6.32-1.08.2-.5-.52Zm.44-7.26l-.28-.16v-.38l.2-.22.24-.04.38.36-.28.46-.26-.02Zm1.08-10.14l-.28-.16v-.38l.2-.22.24-.04.38.36-.28.46-.26-.02Zm1.08,7.56l-.28-.16v-.38l.2-.22.24-.04.38.36-.28.46-.26-.02Zm1.68,6.22l-.38-1.12.5-.94,1.1-.54.74.28.5.9-.98,1.26-1.1.6-.38-.44Zm-.14,3.76l.04-.32.14-.18.48.08.04.56-.2.16-.3.02-.2-.32Zm.38-13.16l-.28-.16v-.38l.2-.22.24-.04.38.36-.28.46-.26-.02Zm.42,5.16l-.28-.16v-.38l.2-.22.24-.04.38.36-.28.46-.26-.02Zm2.1-7.8l-.28-.16v-.38l.2-.22.24-.04.38.36-.28.46-.26-.02Zm.62,5.08l-.68-.5.14-1.88,1.58-.26.48.58.12,1.1-.68,1.08-.96-.12Zm.14,8.46l-.3-.38.16-.26.22-.08.34.14.14.3-.12.34-.1.12-.34-.18Zm1.04,3.32l-.28-.16v-.38l.2-.22.46-.04.16.36-.28.46-.26-.02Zm.12-8.34l-.28-.16v-.38l.2-.22.24-.04.38.36-.28.46-.26-.02Z"/></svg>